<svg id="visual" viewBox="0 0 960 540" width="960" height="540" xmlns="http://www.w3.org/2000/svg" xmlns:xlink="http://www.w3.org/1999/xlink" version="1.1"><g stroke-width="1" stroke-linejoin="bevel"><path d="M490 278L532 221L470 260Z" fill="#a6757f" stroke="#a6757f"></path><path d="M532 221L476 192L470 260Z" fill="#fed7aa" stroke="#fed7aa"></path><path d="M490 278L537 310L532 221Z" fill="#fed7aa" stroke="#fed7aa"></path><path d="M537 310L584 230L532 221Z" fill="#daa293" stroke="#daa293"></path><path d="M532 221L538 163L476 192Z" fill="#eebb9d" stroke="#eebb9d"></path><path d="M476 192L416 255L470 260Z" fill="#daa293" stroke="#daa293"></path><path d="M419 308L477 343L490 278Z" fill="#eebb9d" stroke="#eebb9d"></path><path d="M490 278L477 343L537 310Z" fill="#6b5166" stroke="#6b5166"></path><path d="M584 230L538 163L532 221Z" fill="#00101c" stroke="#00101c"></path><path d="M419 308L490 278L470 260Z" fill="#00101c" stroke="#00101c"></path><path d="M416 255L419 308L470 260Z" fill="#daa293" stroke="#daa293"></path><path d="M619 117L538 138L538 163Z" fill="#6b5166" stroke="#6b5166"></path><path d="M538 163L538 138L476 192Z" fill="#6b5166" stroke="#6b5166"></path><path d="M438 128L419 163L476 192Z" fill="#eebb9d" stroke="#eebb9d"></path><path d="M476 192L419 163L416 255Z" fill="#fed7aa" stroke="#fed7aa"></path><path d="M612 340L608 297L537 310Z" fill="#fed7aa" stroke="#fed7aa"></path><path d="M537 310L608 297L584 230Z" fill="#6b5166" stroke="#6b5166"></path><path d="M655 225L614 199L584 230Z" fill="#00101c" stroke="#00101c"></path><path d="M584 230L614 199L538 163Z" fill="#4d4056" stroke="#4d4056"></path><path d="M419 163L380 219L416 255Z" fill="#c28a89" stroke="#c28a89"></path><path d="M416 255L347 299L419 308Z" fill="#fed7aa" stroke="#fed7aa"></path><path d="M477 343L543 365L537 310Z" fill="#c28a89" stroke="#c28a89"></path><path d="M501 104L438 128L476 192Z" fill="#c28a89" stroke="#c28a89"></path><path d="M419 163L339 178L380 219Z" fill="#896274" stroke="#896274"></path><path d="M347 299L405 337L419 308Z" fill="#6b5166" stroke="#6b5166"></path><path d="M419 308L405 337L477 343Z" fill="#4d4056" stroke="#4d4056"></path><path d="M477 343L465 408L543 365Z" fill="#323044" stroke="#323044"></path><path d="M501 60L501 104L548 37Z" fill="#6b5166" stroke="#6b5166"></path><path d="M538 138L501 104L476 192Z" fill="#323044" stroke="#323044"></path><path d="M543 365L612 340L537 310Z" fill="#896274" stroke="#896274"></path><path d="M608 297L655 225L584 230Z" fill="#896274" stroke="#896274"></path><path d="M656 298L655 225L608 297Z" fill="#fed7aa" stroke="#fed7aa"></path><path d="M614 199L619 117L538 163Z" fill="#a6757f" stroke="#a6757f"></path><path d="M612 340L656 298L608 297Z" fill="#6b5166" stroke="#6b5166"></path><path d="M380 219L347 299L416 255Z" fill="#c28a89" stroke="#c28a89"></path><path d="M402 415L465 408L405 337Z" fill="#a6757f" stroke="#a6757f"></path><path d="M405 337L465 408L477 343Z" fill="#c28a89" stroke="#c28a89"></path><path d="M543 365L578 397L612 340Z" fill="#896274" stroke="#896274"></path><path d="M526 432L578 397L543 365Z" fill="#00101c" stroke="#00101c"></path><path d="M612 340L678 347L656 298Z" fill="#fed7aa" stroke="#fed7aa"></path><path d="M671 173L619 117L614 199Z" fill="#896274" stroke="#896274"></path><path d="M365 118L339 178L419 163Z" fill="#4d4056" stroke="#4d4056"></path><path d="M380 219L280 235L347 299Z" fill="#a6757f" stroke="#a6757f"></path><path d="M655 225L671 173L614 199Z" fill="#6b5166" stroke="#6b5166"></path><path d="M717 201L671 173L655 225Z" fill="#4d4056" stroke="#4d4056"></path><path d="M548 37L501 104L538 138Z" fill="#00101c" stroke="#00101c"></path><path d="M501 104L501 60L438 128Z" fill="#896274" stroke="#896274"></path><path d="M438 128L365 118L419 163Z" fill="#323044" stroke="#323044"></path><path d="M377 76L365 118L438 128Z" fill="#a6757f" stroke="#a6757f"></path><path d="M465 408L526 432L543 365Z" fill="#6b5166" stroke="#6b5166"></path><path d="M347 299L363 378L405 337Z" fill="#c28a89" stroke="#c28a89"></path><path d="M495 501L529 496L526 432Z" fill="#896274" stroke="#896274"></path><path d="M707 302L700 253L656 298Z" fill="#4d4056" stroke="#4d4056"></path><path d="M656 298L700 253L655 225Z" fill="#a6757f" stroke="#a6757f"></path><path d="M363 378L402 415L405 337Z" fill="#daa293" stroke="#daa293"></path><path d="M655 430L612 340L578 397Z" fill="#323044" stroke="#323044"></path><path d="M655 430L678 347L612 340Z" fill="#00101c" stroke="#00101c"></path><path d="M365 118L313 165L339 178Z" fill="#4d4056" stroke="#4d4056"></path><path d="M280 235L291 305L347 299Z" fill="#daa293" stroke="#daa293"></path><path d="M347 299L294 343L363 378Z" fill="#323044" stroke="#323044"></path><path d="M421 46L377 76L438 128Z" fill="#6b5166" stroke="#6b5166"></path><path d="M365 118L311 120L313 165Z" fill="#896274" stroke="#896274"></path><path d="M605 58L538 138L619 117Z" fill="#daa293" stroke="#daa293"></path><path d="M605 58L548 37L538 138Z" fill="#896274" stroke="#896274"></path><path d="M501 60L421 46L438 128Z" fill="#4d4056" stroke="#4d4056"></path><path d="M648 60L605 58L619 117Z" fill="#323044" stroke="#323044"></path><path d="M678 347L707 302L656 298Z" fill="#00101c" stroke="#00101c"></path><path d="M460 0L421 46L501 60Z" fill="#4d4056" stroke="#4d4056"></path><path d="M715 111L673 108L671 173Z" fill="#896274" stroke="#896274"></path><path d="M671 173L673 108L619 117Z" fill="#4d4056" stroke="#4d4056"></path><path d="M772 291L717 201L700 253Z" fill="#323044" stroke="#323044"></path><path d="M700 253L717 201L655 225Z" fill="#323044" stroke="#323044"></path><path d="M280 235L380 219L339 178Z" fill="#4d4056" stroke="#4d4056"></path><path d="M313 165L280 235L339 178Z" fill="#fed7aa" stroke="#fed7aa"></path><path d="M318 65L311 120L365 118Z" fill="#00101c" stroke="#00101c"></path><path d="M313 165L259 222L280 235Z" fill="#00101c" stroke="#00101c"></path><path d="M318 65L365 118L377 76Z" fill="#896274" stroke="#896274"></path><path d="M291 305L294 343L347 299Z" fill="#00101c" stroke="#00101c"></path><path d="M363 378L358 424L402 415Z" fill="#fed7aa" stroke="#fed7aa"></path><path d="M258 375L294 343L226 309Z" fill="#daa293" stroke="#daa293"></path><path d="M303 423L358 424L363 378Z" fill="#4d4056" stroke="#4d4056"></path><path d="M495 501L526 432L465 408Z" fill="#daa293" stroke="#daa293"></path><path d="M673 108L648 60L619 117Z" fill="#896274" stroke="#896274"></path><path d="M612 0L524 0L548 37Z" fill="#a6757f" stroke="#a6757f"></path><path d="M597 492L655 430L578 397Z" fill="#a6757f" stroke="#a6757f"></path><path d="M678 347L733 357L707 302Z" fill="#192130" stroke="#192130"></path><path d="M612 0L548 37L605 58Z" fill="#192130" stroke="#192130"></path><path d="M548 37L524 0L501 60Z" fill="#00101c" stroke="#00101c"></path><path d="M224 175L259 222L313 165Z" fill="#daa293" stroke="#daa293"></path><path d="M280 235L226 309L291 305Z" fill="#4d4056" stroke="#4d4056"></path><path d="M524 0L460 0L501 60Z" fill="#00101c" stroke="#00101c"></path><path d="M421 46L353 0L377 76Z" fill="#00101c" stroke="#00101c"></path><path d="M673 108L737 50L648 60Z" fill="#00101c" stroke="#00101c"></path><path d="M717 201L715 111L671 173Z" fill="#fed7aa" stroke="#fed7aa"></path><path d="M460 0L433 0L421 46Z" fill="#a6757f" stroke="#a6757f"></path><path d="M495 501L465 408L439 496Z" fill="#c28a89" stroke="#c28a89"></path><path d="M526 432L597 492L578 397Z" fill="#fed7aa" stroke="#fed7aa"></path><path d="M725 400L733 357L678 347Z" fill="#00101c" stroke="#00101c"></path><path d="M707 302L772 291L700 253Z" fill="#c28a89" stroke="#c28a89"></path><path d="M717 201L764 101L715 111Z" fill="#c28a89" stroke="#c28a89"></path><path d="M353 0L318 65L377 76Z" fill="#eebb9d" stroke="#eebb9d"></path><path d="M311 120L254 112L313 165Z" fill="#323044" stroke="#323044"></path><path d="M439 496L465 408L402 415Z" fill="#323044" stroke="#323044"></path><path d="M342 467L439 496L402 415Z" fill="#a6757f" stroke="#a6757f"></path><path d="M553 540L597 492L529 496Z" fill="#fed7aa" stroke="#fed7aa"></path><path d="M529 496L597 492L526 432Z" fill="#4d4056" stroke="#4d4056"></path><path d="M655 430L725 400L678 347Z" fill="#fed7aa" stroke="#fed7aa"></path><path d="M650 0L612 0L648 60Z" fill="#323044" stroke="#323044"></path><path d="M648 60L612 0L605 58Z" fill="#896274" stroke="#896274"></path><path d="M294 343L303 423L363 378Z" fill="#896274" stroke="#896274"></path><path d="M358 424L342 467L402 415Z" fill="#c28a89" stroke="#c28a89"></path><path d="M258 375L303 423L294 343Z" fill="#daa293" stroke="#daa293"></path><path d="M720 457L725 400L655 430Z" fill="#eebb9d" stroke="#eebb9d"></path><path d="M597 492L647 474L655 430Z" fill="#a6757f" stroke="#a6757f"></path><path d="M797 368L772 291L733 357Z" fill="#a6757f" stroke="#a6757f"></path><path d="M733 357L772 291L707 302Z" fill="#4d4056" stroke="#4d4056"></path><path d="M303 423L342 467L358 424Z" fill="#00101c" stroke="#00101c"></path><path d="M226 309L294 343L291 305Z" fill="#4d4056" stroke="#4d4056"></path><path d="M303 423L291 459L342 467Z" fill="#4d4056" stroke="#4d4056"></path><path d="M255 76L254 112L311 120Z" fill="#323044" stroke="#323044"></path><path d="M259 222L226 309L280 235Z" fill="#a6757f" stroke="#a6757f"></path><path d="M737 50L650 0L648 60Z" fill="#323044" stroke="#323044"></path><path d="M196 239L226 309L259 222Z" fill="#896274" stroke="#896274"></path><path d="M433 0L353 0L421 46Z" fill="#6b5166" stroke="#6b5166"></path><path d="M318 65L255 76L311 120Z" fill="#c28a89" stroke="#c28a89"></path><path d="M254 112L224 175L313 165Z" fill="#daa293" stroke="#daa293"></path><path d="M801 219L790 196L717 201Z" fill="#eebb9d" stroke="#eebb9d"></path><path d="M715 111L737 50L673 108Z" fill="#6b5166" stroke="#6b5166"></path><path d="M439 496L500 540L495 501Z" fill="#daa293" stroke="#daa293"></path><path d="M495 501L500 540L529 496Z" fill="#4d4056" stroke="#4d4056"></path><path d="M597 492L671 540L647 474Z" fill="#6b5166" stroke="#6b5166"></path><path d="M403 540L500 540L439 496Z" fill="#323044" stroke="#323044"></path><path d="M790 196L764 101L717 201Z" fill="#6b5166" stroke="#6b5166"></path><path d="M772 291L801 219L717 201Z" fill="#4d4056" stroke="#4d4056"></path><path d="M835 180L796 81L764 101Z" fill="#4d4056" stroke="#4d4056"></path><path d="M308 0L255 76L318 65Z" fill="#192130" stroke="#192130"></path><path d="M170 112L161 197L224 175Z" fill="#daa293" stroke="#daa293"></path><path d="M500 540L553 540L529 496Z" fill="#daa293" stroke="#daa293"></path><path d="M238 429L303 423L258 375Z" fill="#c28a89" stroke="#c28a89"></path><path d="M238 429L291 459L303 423Z" fill="#fed7aa" stroke="#fed7aa"></path><path d="M379 540L403 540L439 496Z" fill="#eebb9d" stroke="#eebb9d"></path><path d="M720 457L764 398L725 400Z" fill="#c28a89" stroke="#c28a89"></path><path d="M725 400L764 398L733 357Z" fill="#192130" stroke="#192130"></path><path d="M772 291L839 289L801 219Z" fill="#daa293" stroke="#daa293"></path><path d="M720 457L655 430L647 474Z" fill="#daa293" stroke="#daa293"></path><path d="M764 101L737 50L715 111Z" fill="#a6757f" stroke="#a6757f"></path><path d="M671 540L720 457L647 474Z" fill="#192130" stroke="#192130"></path><path d="M161 197L196 239L224 175Z" fill="#896274" stroke="#896274"></path><path d="M224 175L196 239L259 222Z" fill="#a6757f" stroke="#a6757f"></path><path d="M553 540L587 540L597 492Z" fill="#eebb9d" stroke="#eebb9d"></path><path d="M353 0L308 0L318 65Z" fill="#daa293" stroke="#daa293"></path><path d="M379 540L439 496L342 467Z" fill="#a6757f" stroke="#a6757f"></path><path d="M196 239L189 296L226 309Z" fill="#4d4056" stroke="#4d4056"></path><path d="M226 309L195 351L258 375Z" fill="#00101c" stroke="#00101c"></path><path d="M822 370L797 368L764 398Z" fill="#323044" stroke="#323044"></path><path d="M764 398L797 368L733 357Z" fill="#896274" stroke="#896274"></path><path d="M318 540L379 540L342 467Z" fill="#323044" stroke="#323044"></path><path d="M197 402L238 429L258 375Z" fill="#896274" stroke="#896274"></path><path d="M291 459L318 540L342 467Z" fill="#323044" stroke="#323044"></path><path d="M189 296L195 351L226 309Z" fill="#eebb9d" stroke="#eebb9d"></path><path d="M781 0L731 0L737 50Z" fill="#4d4056" stroke="#4d4056"></path><path d="M737 50L731 0L650 0Z" fill="#6b5166" stroke="#6b5166"></path><path d="M835 180L764 101L790 196Z" fill="#eebb9d" stroke="#eebb9d"></path><path d="M764 101L796 81L737 50Z" fill="#c28a89" stroke="#c28a89"></path><path d="M850 219L835 180L801 219Z" fill="#192130" stroke="#192130"></path><path d="M801 219L835 180L790 196Z" fill="#eebb9d" stroke="#eebb9d"></path><path d="M797 368L839 289L772 291Z" fill="#c28a89" stroke="#c28a89"></path><path d="M587 540L671 540L597 492Z" fill="#6b5166" stroke="#6b5166"></path><path d="M860 441L822 370L764 398Z" fill="#323044" stroke="#323044"></path><path d="M797 368L822 370L839 289Z" fill="#323044" stroke="#323044"></path><path d="M783 493L764 398L720 457Z" fill="#192130" stroke="#192130"></path><path d="M195 351L197 402L258 375Z" fill="#eebb9d" stroke="#eebb9d"></path><path d="M246 481L318 540L291 459Z" fill="#00101c" stroke="#00101c"></path><path d="M105 378L197 402L195 351Z" fill="#896274" stroke="#896274"></path><path d="M170 112L224 175L254 112Z" fill="#c28a89" stroke="#c28a89"></path><path d="M196 239L134 286L189 296Z" fill="#896274" stroke="#896274"></path><path d="M189 296L134 286L195 351Z" fill="#c28a89" stroke="#c28a89"></path><path d="M170 112L254 112L255 76Z" fill="#00101c" stroke="#00101c"></path><path d="M839 289L850 219L801 219Z" fill="#6b5166" stroke="#6b5166"></path><path d="M246 481L291 459L238 429Z" fill="#192130" stroke="#192130"></path><path d="M191 477L246 481L238 429Z" fill="#6b5166" stroke="#6b5166"></path><path d="M308 0L250 0L255 76Z" fill="#4d4056" stroke="#4d4056"></path><path d="M188 37L170 112L255 76Z" fill="#eebb9d" stroke="#eebb9d"></path><path d="M671 540L720 540L720 457Z" fill="#6b5166" stroke="#6b5166"></path><path d="M835 77L781 0L796 81Z" fill="#00101c" stroke="#00101c"></path><path d="M796 81L781 0L737 50Z" fill="#896274" stroke="#896274"></path><path d="M835 77L796 81L856 108Z" fill="#daa293" stroke="#daa293"></path><path d="M132 201L196 239L161 197Z" fill="#daa293" stroke="#daa293"></path><path d="M132 201L134 286L196 239Z" fill="#c28a89" stroke="#c28a89"></path><path d="M856 108L796 81L835 180Z" fill="#a6757f" stroke="#a6757f"></path><path d="M129 122L132 201L161 197Z" fill="#fed7aa" stroke="#fed7aa"></path><path d="M720 540L783 493L720 457Z" fill="#fed7aa" stroke="#fed7aa"></path><path d="M250 0L188 37L255 76Z" fill="#192130" stroke="#192130"></path><path d="M170 112L129 122L161 197Z" fill="#192130" stroke="#192130"></path><path d="M907 160L856 108L835 180Z" fill="#323044" stroke="#323044"></path><path d="M127 473L191 477L197 402Z" fill="#a6757f" stroke="#a6757f"></path><path d="M197 402L191 477L238 429Z" fill="#eebb9d" stroke="#eebb9d"></path><path d="M246 481L234 540L318 540Z" fill="#4d4056" stroke="#4d4056"></path><path d="M142 74L129 122L170 112Z" fill="#323044" stroke="#323044"></path><path d="M132 201L98 219L134 286Z" fill="#fed7aa" stroke="#fed7aa"></path><path d="M250 0L194 0L188 37Z" fill="#c28a89" stroke="#c28a89"></path><path d="M188 37L142 74L170 112Z" fill="#fed7aa" stroke="#fed7aa"></path><path d="M131 0L142 74L188 37Z" fill="#a6757f" stroke="#a6757f"></path><path d="M191 477L234 540L246 481Z" fill="#896274" stroke="#896274"></path><path d="M720 540L777 540L783 493Z" fill="#896274" stroke="#896274"></path><path d="M902 366L839 289L822 370Z" fill="#323044" stroke="#323044"></path><path d="M51 163L132 201L129 122Z" fill="#896274" stroke="#896274"></path><path d="M51 163L98 219L132 201Z" fill="#00101c" stroke="#00101c"></path><path d="M134 286L105 378L195 351Z" fill="#4d4056" stroke="#4d4056"></path><path d="M902 366L907 281L839 289Z" fill="#192130" stroke="#192130"></path><path d="M839 289L907 281L850 219Z" fill="#a6757f" stroke="#a6757f"></path><path d="M850 219L907 160L835 180Z" fill="#323044" stroke="#323044"></path><path d="M860 441L764 398L837 484Z" fill="#323044" stroke="#323044"></path><path d="M837 484L764 398L783 493Z" fill="#fed7aa" stroke="#fed7aa"></path><path d="M839 540L837 484L783 493Z" fill="#eebb9d" stroke="#eebb9d"></path><path d="M916 247L907 160L850 219Z" fill="#c28a89" stroke="#c28a89"></path><path d="M856 108L891 53L835 77Z" fill="#00101c" stroke="#00101c"></path><path d="M835 77L854 0L781 0Z" fill="#896274" stroke="#896274"></path><path d="M907 281L916 247L850 219Z" fill="#896274" stroke="#896274"></path><path d="M907 160L892 103L856 108Z" fill="#323044" stroke="#323044"></path><path d="M892 419L902 366L822 370Z" fill="#896274" stroke="#896274"></path><path d="M907 281L960 253L916 247Z" fill="#a6757f" stroke="#a6757f"></path><path d="M892 419L822 370L860 441Z" fill="#fed7aa" stroke="#fed7aa"></path><path d="M69 398L105 378L38 347Z" fill="#323044" stroke="#323044"></path><path d="M191 477L163 540L234 540Z" fill="#a6757f" stroke="#a6757f"></path><path d="M904 463L892 419L860 441Z" fill="#c28a89" stroke="#c28a89"></path><path d="M891 53L854 0L835 77Z" fill="#6b5166" stroke="#6b5166"></path><path d="M69 398L101 402L105 378Z" fill="#c28a89" stroke="#c28a89"></path><path d="M105 378L101 402L197 402Z" fill="#00101c" stroke="#00101c"></path><path d="M892 103L891 53L856 108Z" fill="#00101c" stroke="#00101c"></path><path d="M960 46L891 53L892 103Z" fill="#192130" stroke="#192130"></path><path d="M101 402L127 473L197 402Z" fill="#fed7aa" stroke="#fed7aa"></path><path d="M194 0L131 0L188 37Z" fill="#323044" stroke="#323044"></path><path d="M142 74L75 78L129 122Z" fill="#323044" stroke="#323044"></path><path d="M777 540L839 540L783 493Z" fill="#c28a89" stroke="#c28a89"></path><path d="M837 484L904 463L860 441Z" fill="#192130" stroke="#192130"></path><path d="M127 473L163 540L191 477Z" fill="#eebb9d" stroke="#eebb9d"></path><path d="M960 321L907 281L902 366Z" fill="#323044" stroke="#323044"></path><path d="M960 321L960 253L907 281Z" fill="#896274" stroke="#896274"></path><path d="M916 247L960 187L907 160Z" fill="#323044" stroke="#323044"></path><path d="M907 160L960 130L892 103Z" fill="#00101c" stroke="#00101c"></path><path d="M912 540L904 463L837 484Z" fill="#4d4056" stroke="#4d4056"></path><path d="M960 372L960 321L902 366Z" fill="#192130" stroke="#192130"></path><path d="M131 0L75 78L142 74Z" fill="#323044" stroke="#323044"></path><path d="M39 305L105 378L134 286Z" fill="#eebb9d" stroke="#eebb9d"></path><path d="M75 78L51 163L129 122Z" fill="#c28a89" stroke="#c28a89"></path><path d="M960 253L960 187L916 247Z" fill="#6b5166" stroke="#6b5166"></path><path d="M37 254L134 286L98 219Z" fill="#c28a89" stroke="#c28a89"></path><path d="M101 402L68 491L127 473Z" fill="#c28a89" stroke="#c28a89"></path><path d="M127 473L140 540L163 540Z" fill="#fed7aa" stroke="#fed7aa"></path><path d="M960 372L902 366L960 419Z" fill="#daa293" stroke="#daa293"></path><path d="M51 163L37 254L98 219Z" fill="#eebb9d" stroke="#eebb9d"></path><path d="M37 254L39 305L134 286Z" fill="#896274" stroke="#896274"></path><path d="M75 540L140 540L127 473Z" fill="#c28a89" stroke="#c28a89"></path><path d="M960 187L960 130L907 160Z" fill="#c28a89" stroke="#c28a89"></path><path d="M891 53L909 0L854 0Z" fill="#eebb9d" stroke="#eebb9d"></path><path d="M960 46L909 0L891 53Z" fill="#c28a89" stroke="#c28a89"></path><path d="M960 419L902 366L892 419Z" fill="#c28a89" stroke="#c28a89"></path><path d="M39 305L38 347L105 378Z" fill="#6b5166" stroke="#6b5166"></path><path d="M69 398L68 491L101 402Z" fill="#192130" stroke="#192130"></path><path d="M0 304L38 347L39 305Z" fill="#daa293" stroke="#daa293"></path><path d="M75 78L39 101L51 163Z" fill="#fed7aa" stroke="#fed7aa"></path><path d="M0 171L0 250L37 254Z" fill="#c28a89" stroke="#c28a89"></path><path d="M0 98L39 101L0 44Z" fill="#6b5166" stroke="#6b5166"></path><path d="M131 0L80 0L75 78Z" fill="#c28a89" stroke="#c28a89"></path><path d="M904 463L960 419L892 419Z" fill="#896274" stroke="#896274"></path><path d="M960 465L960 419L904 463Z" fill="#fed7aa" stroke="#fed7aa"></path><path d="M960 130L960 46L892 103Z" fill="#896274" stroke="#896274"></path><path d="M0 458L68 491L69 398Z" fill="#00101c" stroke="#00101c"></path><path d="M37 254L0 304L39 305Z" fill="#00101c" stroke="#00101c"></path><path d="M38 347L0 362L69 398Z" fill="#00101c" stroke="#00101c"></path><path d="M0 171L37 254L51 163Z" fill="#daa293" stroke="#daa293"></path><path d="M839 540L912 540L837 484Z" fill="#a6757f" stroke="#a6757f"></path><path d="M0 250L0 304L37 254Z" fill="#323044" stroke="#323044"></path><path d="M912 540L960 465L904 463Z" fill="#323044" stroke="#323044"></path><path d="M0 98L0 171L39 101Z" fill="#eebb9d" stroke="#eebb9d"></path><path d="M39 101L0 171L51 163Z" fill="#6b5166" stroke="#6b5166"></path><path d="M0 304L0 362L38 347Z" fill="#00101c" stroke="#00101c"></path><path d="M960 46L960 0L909 0Z" fill="#a6757f" stroke="#a6757f"></path><path d="M0 540L75 540L68 491Z" fill="#00101c" stroke="#00101c"></path><path d="M68 491L75 540L127 473Z" fill="#daa293" stroke="#daa293"></path><path d="M0 44L39 101L75 78Z" fill="#daa293" stroke="#daa293"></path><path d="M0 362L0 413L69 398Z" fill="#eebb9d" stroke="#eebb9d"></path><path d="M80 0L0 44L75 78Z" fill="#eebb9d" stroke="#eebb9d"></path><path d="M912 540L960 540L960 465Z" fill="#eebb9d" stroke="#eebb9d"></path><path d="M0 413L0 458L69 398Z" fill="#c28a89" stroke="#c28a89"></path><path d="M80 0L0 0L0 44Z" fill="#6b5166" stroke="#6b5166"></path><path d="M0 458L0 540L68 491Z" fill="#896274" stroke="#896274"></path></g></svg>